<?xml version="1.0" encoding="utf-8"?>
<svg version="1.1" xmlns:xlink="http://www.w3.org/1999/xlink" width="99px" height="99px" xmlns="http://www.w3.org/2000/svg">
  <defs>
    <pattern id="BGPattern" patternUnits="userSpaceOnUse" alignment="0 0" imageRepeat="None" />
    <mask fill="white" id="Clip20">
      <path d="M 24.6533203125 6.6386718749999964  C 32.2373046875 2.2128906249999916  40.51953125 0  49.5 0  C 58.48046875 0  66.76269531250001 2.2128906249999916  74.3466796875 6.6386718749999964  C 81.9306640625 11.06445312499999  87.93554687500001 17.0693359375  92.361328125 24.6533203125  C 96.78710937499999 32.23730468749999  99 40.519531249999986  99 49.5  C 99 58.48046875  96.78710937499999 66.76269531249999  92.361328125 74.3466796875  C 87.93554687500001 81.9306640625  81.9306640625 87.935546875  74.3466796875 92.361328125  C 66.76269531250001 96.78710937500001  58.48046875 99  49.5 99  C 40.51953125 99  32.2373046875 96.78710937500001  24.6533203125 92.361328125  C 17.0693359375 87.935546875  11.064453125000002 81.9306640625  6.638671875000001 74.3466796875  C 2.2128906249999996 66.76269531249999  0 58.48046875  0 49.5  C 0 40.519531249999986  2.2128906249999996 32.23730468749999  6.638671875000001 24.6533203125  C 11.064453125000002 17.0693359375  17.0693359375 11.06445312499999  24.6533203125 6.6386718749999964  Z M 39.1875 73.669921875  L 74.25 53.04492187500001  C 75.625 52.27148437500001  76.3125 51.08984374999999  76.3125 49.5  C 76.3125 47.91015625  75.625 46.72851562500001  74.25 45.95507812500001  L 39.1875 25.330078125  C 37.85546875000001 24.513671875  36.48046875 24.492187500000004  35.0625 25.265625000000004  C 33.68750000000001 26.082031249999993  33 27.285156249999996  33 28.874999999999996  L 33 70.12499999999999  C 33 71.71484374999999  33.68750000000001 72.91796875  35.0625 73.73437500000001  C 35.75000000000001 74.078125  36.4375 74.25  37.125 74.25  C 37.85546875000001 74.25  38.54296875 74.056640625  39.1875 73.669921875  Z " fill-rule="evenodd" />
    </mask>
  </defs>
  <g transform="matrix(1 0 0 1 -171 -3188 )">
    <path d="M 24.6533203125 6.6386718749999964  C 32.2373046875 2.2128906249999916  40.51953125 0  49.5 0  C 58.48046875 0  66.76269531250001 2.2128906249999916  74.3466796875 6.6386718749999964  C 81.9306640625 11.06445312499999  87.93554687500001 17.0693359375  92.361328125 24.6533203125  C 96.78710937499999 32.23730468749999  99 40.519531249999986  99 49.5  C 99 58.48046875  96.78710937499999 66.76269531249999  92.361328125 74.3466796875  C 87.93554687500001 81.9306640625  81.9306640625 87.935546875  74.3466796875 92.361328125  C 66.76269531250001 96.78710937500001  58.48046875 99  49.5 99  C 40.51953125 99  32.2373046875 96.78710937500001  24.6533203125 92.361328125  C 17.0693359375 87.935546875  11.064453125000002 81.9306640625  6.638671875000001 74.3466796875  C 2.2128906249999996 66.76269531249999  0 58.48046875  0 49.5  C 0 40.519531249999986  2.2128906249999996 32.23730468749999  6.638671875000001 24.6533203125  C 11.064453125000002 17.0693359375  17.0693359375 11.06445312499999  24.6533203125 6.6386718749999964  Z M 39.1875 73.669921875  L 74.25 53.04492187500001  C 75.625 52.27148437500001  76.3125 51.08984374999999  76.3125 49.5  C 76.3125 47.91015625  75.625 46.72851562500001  74.25 45.95507812500001  L 39.1875 25.330078125  C 37.85546875000001 24.513671875  36.48046875 24.492187500000004  35.0625 25.265625000000004  C 33.68750000000001 26.082031249999993  33 27.285156249999996  33 28.874999999999996  L 33 70.12499999999999  C 33 71.71484374999999  33.68750000000001 72.91796875  35.0625 73.73437500000001  C 35.75000000000001 74.078125  36.4375 74.25  37.125 74.25  C 37.85546875000001 74.25  38.54296875 74.056640625  39.1875 73.669921875  Z " fill-rule="nonzero" fill="rgba(255, 255, 255, 0.592156862745098)" stroke="none" transform="matrix(1 0 0 1 171 3188 )" class="fill" />
    <path d="M 24.6533203125 6.6386718749999964  C 32.2373046875 2.2128906249999916  40.51953125 0  49.5 0  C 58.48046875 0  66.76269531250001 2.2128906249999916  74.3466796875 6.6386718749999964  C 81.9306640625 11.06445312499999  87.93554687500001 17.0693359375  92.361328125 24.6533203125  C 96.78710937499999 32.23730468749999  99 40.519531249999986  99 49.5  C 99 58.48046875  96.78710937499999 66.76269531249999  92.361328125 74.3466796875  C 87.93554687500001 81.9306640625  81.9306640625 87.935546875  74.3466796875 92.361328125  C 66.76269531250001 96.78710937500001  58.48046875 99  49.5 99  C 40.51953125 99  32.2373046875 96.78710937500001  24.6533203125 92.361328125  C 17.0693359375 87.935546875  11.064453125000002 81.9306640625  6.638671875000001 74.3466796875  C 2.2128906249999996 66.76269531249999  0 58.48046875  0 49.5  C 0 40.519531249999986  2.2128906249999996 32.23730468749999  6.638671875000001 24.6533203125  C 11.064453125000002 17.0693359375  17.0693359375 11.06445312499999  24.6533203125 6.6386718749999964  Z " stroke-width="0" stroke-dasharray="0" stroke="rgba(255, 255, 255, 0)" fill="none" transform="matrix(1 0 0 1 171 3188 )" class="stroke" mask="url(#Clip20)" />
    <path d="M 39.1875 73.669921875  L 74.25 53.04492187500001  C 75.625 52.27148437500001  76.3125 51.08984374999999  76.3125 49.5  C 76.3125 47.91015625  75.625 46.72851562500001  74.25 45.95507812500001  L 39.1875 25.330078125  C 37.85546875000001 24.513671875  36.48046875 24.492187500000004  35.0625 25.265625000000004  C 33.68750000000001 26.082031249999993  33 27.285156249999996  33 28.874999999999996  L 33 70.12499999999999  C 33 71.71484374999999  33.68750000000001 72.91796875  35.0625 73.73437500000001  C 35.75000000000001 74.078125  36.4375 74.25  37.125 74.25  C 37.85546875000001 74.25  38.54296875 74.056640625  39.1875 73.669921875  Z " stroke-width="0" stroke-dasharray="0" stroke="rgba(255, 255, 255, 0)" fill="none" transform="matrix(1 0 0 1 171 3188 )" class="stroke" mask="url(#Clip20)" />
  </g>
</svg>