<?xml version="1.0" encoding="utf-8"?>
<svg version="1.1" xmlns:xlink="http://www.w3.org/1999/xlink" width="20px" height="20px" xmlns="http://www.w3.org/2000/svg">
  <defs>
    <pattern id="BGPattern" patternUnits="userSpaceOnUse" alignment="0 0" imageRepeat="None" />
    <mask fill="white" id="Clip4">
      <path d="M 15.299479166666668 7.6953125  C 15.846354166666668 7.3046875  16.302083333333332 6.831597222222221  16.666666666666668 6.276041666666668  C 16.180555555555557 6.493055555555554  15.655381944444446 6.640625  15.091145833333332 6.71875  C 15.681423611111114 6.371527777777777  16.085069444444446 5.863715277777777  16.302083333333332 5.1953125  C 15.737847222222223 5.525173611111109  15.15625 5.746527777777777  14.557291666666668 5.859375  C 14.027777777777779 5.286458333333332  13.363715277777779 5  12.565104166666668 5  C 11.809895833333332 5  11.165364583333332 5.266927083333332  10.631510416666668 5.80078125  C 10.09765625 6.334635416666668  9.830729166666666 6.979166666666668  9.830729166666666 7.734375  C 9.830729166666666 7.986111111111109  9.852430555555557 8.194444444444445  9.895833333333334 8.359375  C 8.776041666666666 8.298611111111109  7.7256944444444455 8.016493055555555  6.744791666666666 7.513020833333332  C 5.763888888888889 7.009548611111109  4.930555555555556 6.336805555555554  4.244791666666667 5.494791666666668  C 3.993055555555556 5.928819444444445  3.8671875 6.388888888888886  3.8671875 6.875  C 3.8671875 7.864583333333332  4.262152777777779 8.624131944444445  5.052083333333334 9.153645833333332  C 4.644097222222222 9.144965277777777  4.210069444444445 9.032118055555555  3.75 8.815104166666668  L 3.75 8.841145833333332  C 3.75 9.4921875  3.967013888888889 10.071614583333336  4.401041666666667 10.579427083333336  C 4.835069444444445 11.087239583333336  5.368923611111112 11.401909722222223  6.002604166666666 11.5234375  C 5.750868055555557 11.592881944444443  5.529513888888889 11.627604166666664  5.338541666666666 11.627604166666664  C 5.2256944444444455 11.627604166666664  5.056423611111112 11.610243055555554  4.830729166666667 11.575520833333336  C 5.013020833333334 12.122395833333336  5.336371527777778 12.573784722222218  5.80078125 12.9296875  C 6.265190972222222 13.285590277777777  6.792534722222223 13.467881944444443  7.3828125 13.4765625  C 6.375868055555555 14.2578125  5.243055555555555 14.6484375  3.984375 14.6484375  C 3.758680555555556 14.6484375  3.541666666666667 14.635416666666664  3.333333333333333 14.609375  C 4.618055555555555 15.425347222222223  6.015625 15.833333333333332  7.526041666666666 15.833333333333332  C 8.49826388888889 15.833333333333332  9.409722222222223 15.679253472222223  10.260416666666668 15.37109375  C 11.11111111111111 15.062934027777777  11.840277777777779 14.65060763888889  12.447916666666668 14.134114583333336  C 13.055555555555555 13.617621527777777  13.578559027777779 13.023003472222218  14.016927083333332 12.350260416666664  C 14.455295138888891 11.67751736111111  14.780815972222223 10.97439236111111  14.993489583333332 10.240885416666664  C 15.206163194444446 9.507378472222221  15.3125 8.776041666666668  15.3125 8.046875  C 15.3125 7.890625  15.308159722222223 7.7734375  15.299479166666668 7.6953125  Z M 18.899739583333332 1.1002604166666674  C 19.63324652777778 1.8337673611111094  20 2.717013888888886  20 3.75  L 20 16.25  C 20 17.28298611111111  19.63324652777778 18.16623263888889  18.899739583333332 18.899739583333332  C 18.16623263888889 19.63324652777778  17.282986111111114 20  16.25 20  L 3.75 20  C 2.717013888888889 20  1.8337673611111114 19.63324652777778  1.1002604166666667 18.899739583333332  C 0.36675347222222215 18.16623263888889  0 17.28298611111111  0 16.25  L 0 3.75  C 0 2.717013888888886  0.36675347222222215 1.8337673611111094  1.1002604166666667 1.1002604166666674  C 1.8337673611111114 0.366753472222221  2.717013888888889 0  3.75 0  L 16.25 0  C 17.282986111111114 0  18.16623263888889 0.366753472222221  18.899739583333332 1.1002604166666674  Z " fill-rule="evenodd" />
    </mask>
  </defs>
  <g transform="matrix(1 0 0 1 -257 -5126 )">
    <path d="M 15.299479166666668 7.6953125  C 15.846354166666668 7.3046875  16.302083333333332 6.831597222222221  16.666666666666668 6.276041666666668  C 16.180555555555557 6.493055555555554  15.655381944444446 6.640625  15.091145833333332 6.71875  C 15.681423611111114 6.371527777777777  16.085069444444446 5.863715277777777  16.302083333333332 5.1953125  C 15.737847222222223 5.525173611111109  15.15625 5.746527777777777  14.557291666666668 5.859375  C 14.027777777777779 5.286458333333332  13.363715277777779 5  12.565104166666668 5  C 11.809895833333332 5  11.165364583333332 5.266927083333332  10.631510416666668 5.80078125  C 10.09765625 6.334635416666668  9.830729166666666 6.979166666666668  9.830729166666666 7.734375  C 9.830729166666666 7.986111111111109  9.852430555555557 8.194444444444445  9.895833333333334 8.359375  C 8.776041666666666 8.298611111111109  7.7256944444444455 8.016493055555555  6.744791666666666 7.513020833333332  C 5.763888888888889 7.009548611111109  4.930555555555556 6.336805555555554  4.244791666666667 5.494791666666668  C 3.993055555555556 5.928819444444445  3.8671875 6.388888888888886  3.8671875 6.875  C 3.8671875 7.864583333333332  4.262152777777779 8.624131944444445  5.052083333333334 9.153645833333332  C 4.644097222222222 9.144965277777777  4.210069444444445 9.032118055555555  3.75 8.815104166666668  L 3.75 8.841145833333332  C 3.75 9.4921875  3.967013888888889 10.071614583333336  4.401041666666667 10.579427083333336  C 4.835069444444445 11.087239583333336  5.368923611111112 11.401909722222223  6.002604166666666 11.5234375  C 5.750868055555557 11.592881944444443  5.529513888888889 11.627604166666664  5.338541666666666 11.627604166666664  C 5.2256944444444455 11.627604166666664  5.056423611111112 11.610243055555554  4.830729166666667 11.575520833333336  C 5.013020833333334 12.122395833333336  5.336371527777778 12.573784722222218  5.80078125 12.9296875  C 6.265190972222222 13.285590277777777  6.792534722222223 13.467881944444443  7.3828125 13.4765625  C 6.375868055555555 14.2578125  5.243055555555555 14.6484375  3.984375 14.6484375  C 3.758680555555556 14.6484375  3.541666666666667 14.635416666666664  3.333333333333333 14.609375  C 4.618055555555555 15.425347222222223  6.015625 15.833333333333332  7.526041666666666 15.833333333333332  C 8.49826388888889 15.833333333333332  9.409722222222223 15.679253472222223  10.260416666666668 15.37109375  C 11.11111111111111 15.062934027777777  11.840277777777779 14.65060763888889  12.447916666666668 14.134114583333336  C 13.055555555555555 13.617621527777777  13.578559027777779 13.023003472222218  14.016927083333332 12.350260416666664  C 14.455295138888891 11.67751736111111  14.780815972222223 10.97439236111111  14.993489583333332 10.240885416666664  C 15.206163194444446 9.507378472222221  15.3125 8.776041666666668  15.3125 8.046875  C 15.3125 7.890625  15.308159722222223 7.7734375  15.299479166666668 7.6953125  Z M 18.899739583333332 1.1002604166666674  C 19.63324652777778 1.8337673611111094  20 2.717013888888886  20 3.75  L 20 16.25  C 20 17.28298611111111  19.63324652777778 18.16623263888889  18.899739583333332 18.899739583333332  C 18.16623263888889 19.63324652777778  17.282986111111114 20  16.25 20  L 3.75 20  C 2.717013888888889 20  1.8337673611111114 19.63324652777778  1.1002604166666667 18.899739583333332  C 0.36675347222222215 18.16623263888889  0 17.28298611111111  0 16.25  L 0 3.75  C 0 2.717013888888886  0.36675347222222215 1.8337673611111094  1.1002604166666667 1.1002604166666674  C 1.8337673611111114 0.366753472222221  2.717013888888889 0  3.75 0  L 16.25 0  C 17.282986111111114 0  18.16623263888889 0.366753472222221  18.899739583333332 1.1002604166666674  Z " fill-rule="nonzero" fill="rgba(255, 255, 255, 1)" stroke="none" transform="matrix(1 0 0 1 257 5126 )" class="fill" />
    <path d="M 15.299479166666668 7.6953125  C 15.846354166666668 7.3046875  16.302083333333332 6.831597222222221  16.666666666666668 6.276041666666668  C 16.180555555555557 6.493055555555554  15.655381944444446 6.640625  15.091145833333332 6.71875  C 15.681423611111114 6.371527777777777  16.085069444444446 5.863715277777777  16.302083333333332 5.1953125  C 15.737847222222223 5.525173611111109  15.15625 5.746527777777777  14.557291666666668 5.859375  C 14.027777777777779 5.286458333333332  13.363715277777779 5  12.565104166666668 5  C 11.809895833333332 5  11.165364583333332 5.266927083333332  10.631510416666668 5.80078125  C 10.09765625 6.334635416666668  9.830729166666666 6.979166666666668  9.830729166666666 7.734375  C 9.830729166666666 7.986111111111109  9.852430555555557 8.194444444444445  9.895833333333334 8.359375  C 8.776041666666666 8.298611111111109  7.7256944444444455 8.016493055555555  6.744791666666666 7.513020833333332  C 5.763888888888889 7.009548611111109  4.930555555555556 6.336805555555554  4.244791666666667 5.494791666666668  C 3.993055555555556 5.928819444444445  3.8671875 6.388888888888886  3.8671875 6.875  C 3.8671875 7.864583333333332  4.262152777777779 8.624131944444445  5.052083333333334 9.153645833333332  C 4.644097222222222 9.144965277777777  4.210069444444445 9.032118055555555  3.75 8.815104166666668  L 3.75 8.841145833333332  C 3.75 9.4921875  3.967013888888889 10.071614583333336  4.401041666666667 10.579427083333336  C 4.835069444444445 11.087239583333336  5.368923611111112 11.401909722222223  6.002604166666666 11.5234375  C 5.750868055555557 11.592881944444443  5.529513888888889 11.627604166666664  5.338541666666666 11.627604166666664  C 5.2256944444444455 11.627604166666664  5.056423611111112 11.610243055555554  4.830729166666667 11.575520833333336  C 5.013020833333334 12.122395833333336  5.336371527777778 12.573784722222218  5.80078125 12.9296875  C 6.265190972222222 13.285590277777777  6.792534722222223 13.467881944444443  7.3828125 13.4765625  C 6.375868055555555 14.2578125  5.243055555555555 14.6484375  3.984375 14.6484375  C 3.758680555555556 14.6484375  3.541666666666667 14.635416666666664  3.333333333333333 14.609375  C 4.618055555555555 15.425347222222223  6.015625 15.833333333333332  7.526041666666666 15.833333333333332  C 8.49826388888889 15.833333333333332  9.409722222222223 15.679253472222223  10.260416666666668 15.37109375  C 11.11111111111111 15.062934027777777  11.840277777777779 14.65060763888889  12.447916666666668 14.134114583333336  C 13.055555555555555 13.617621527777777  13.578559027777779 13.023003472222218  14.016927083333332 12.350260416666664  C 14.455295138888891 11.67751736111111  14.780815972222223 10.97439236111111  14.993489583333332 10.240885416666664  C 15.206163194444446 9.507378472222221  15.3125 8.776041666666668  15.3125 8.046875  C 15.3125 7.890625  15.308159722222223 7.7734375  15.299479166666668 7.6953125  Z " stroke-width="0" stroke-dasharray="0" stroke="rgba(255, 255, 255, 0)" fill="none" transform="matrix(1 0 0 1 257 5126 )" class="stroke" mask="url(#Clip4)" />
    <path d="M 18.899739583333332 1.1002604166666674  C 19.63324652777778 1.8337673611111094  20 2.717013888888886  20 3.75  L 20 16.25  C 20 17.28298611111111  19.63324652777778 18.16623263888889  18.899739583333332 18.899739583333332  C 18.16623263888889 19.63324652777778  17.282986111111114 20  16.25 20  L 3.75 20  C 2.717013888888889 20  1.8337673611111114 19.63324652777778  1.1002604166666667 18.899739583333332  C 0.36675347222222215 18.16623263888889  0 17.28298611111111  0 16.25  L 0 3.75  C 0 2.717013888888886  0.36675347222222215 1.8337673611111094  1.1002604166666667 1.1002604166666674  C 1.8337673611111114 0.366753472222221  2.717013888888889 0  3.75 0  L 16.25 0  C 17.282986111111114 0  18.16623263888889 0.366753472222221  18.899739583333332 1.1002604166666674  Z " stroke-width="0" stroke-dasharray="0" stroke="rgba(255, 255, 255, 0)" fill="none" transform="matrix(1 0 0 1 257 5126 )" class="stroke" mask="url(#Clip4)" />
  </g>
</svg>