<?xml version="1.0" encoding="utf-8"?>
<svg version="1.1" xmlns:xlink="http://www.w3.org/1999/xlink" width="28px" height="20px" xmlns="http://www.w3.org/2000/svg">
  <defs>
    <pattern id="BGPattern" patternUnits="userSpaceOnUse" alignment="0 0" imageRepeat="None" />
    <mask fill="white" id="Clip3">
      <path d="M 11.112597547380156 5.698412698412698  L 11.112597547380156 13.682539682539684  L 18.666666666666664 9.714285714285715  L 11.112597547380156 5.698412698412698  Z M 4.214046822742475 0.2857142857142847  C 6.825715347454478 0.0952380952380949  10.087699739873651 0  14 0  C 15.748049052396878 0  17.436269044964696 0.023809523809523725  19.064659977703457 0.07142857142857117  C 20.693050910442217 0.11904761904761862  21.887030843552584 0.16931216931216797  22.64659977703456 0.22222222222222143  L 23.785953177257525 0.2857142857142847  C 23.796358231140843 0.2857142857142847  23.884801189149016 0.2936507936507926  24.05128205128205 0.3095238095238084  C 24.21776291341509 0.32539682539682646  24.337421033073213 0.3412698412698423  24.41025641025641 0.3571428571428581  C 24.483091787439612 0.3730158730158739  24.60535117056856 0.39682539682539764  24.777034559643255 0.42857142857142927  C 24.94871794871795 0.4603174603174609  25.09698996655518 0.5026455026455001  25.221850613154963 0.5555555555555558  C 25.346711259754738 0.608465608465607  25.492382014121148 0.6772486772486741  25.65886287625418 0.7619047619047614  C 25.82534373838722 0.8465608465608443  25.9866220735786 0.9497354497354493  26.142697881828315 1.071428571428572  C 26.29877369007804 1.1931216931216904  26.449646971386105 1.333333333333333  26.59531772575251 1.4920634920634912  C 26.657748049052394 1.5555555555555545  26.73838721664809 1.6534391534391513  26.837235228539576 1.785714285714286  C 26.93608324043107 1.9179894179894164  27.086956521739133 2.227513227513227  27.28985507246377 2.7142857142857135  C 27.49275362318841 3.201058201058198  27.630620587142328 3.735449735449734  27.703455964325528 4.317460317460318  C 27.786696395392052 4.9947089947089935  27.851727982162767 5.716931216931216  27.89855072463768 6.484126984126983  C 27.9453734671126 7.251322751322751  27.973987365291716 7.851851851851849  27.984392419175027 8.285714285714285  L 27.984392419175027 8.920634920634921  L 27.984392419175027 11.079365079365079  C 27.994797473058345 12.61375661375661  27.90115198810851 14.148148148148147  27.703455964325528 15.682539682539682  C 27.630620587142328 16.264550264550266  27.500557413600895 16.79100529100529  27.313266443701227 17.261904761904763  C 27.125975473801567 17.732804232804234  26.959494611668525 18.05820105820106  26.81382385730212 18.238095238095237  L 26.59531772575251 18.50793650793651  C 26.449646971386105 18.666666666666668  26.29877369007804 18.806878306878303  26.142697881828315 18.928571428571427  C 25.9866220735786 19.05026455026455  25.82534373838722 19.150793650793652  25.65886287625418 19.23015873015873  C 25.492382014121148 19.30952380952381  25.346711259754738 19.375661375661377  25.221850613154963 19.428571428571427  C 25.09698996655518 19.48148148148148  24.94871794871795 19.523809523809522  24.777034559643255 19.555555555555554  C 24.60535117056856 19.587301587301585  24.480490523968783 19.61111111111111  24.402452619843924 19.626984126984127  C 24.324414715719065 19.642857142857142  24.204756596060946 19.658730158730158  24.043478260869566 19.674603174603174  C 23.882199925678187 19.69047619047619  23.796358231140843 19.6984126984127  23.785953177257525 19.6984126984127  C 21.174284652545523 19.899470899470902  17.912300260126347 20  14 20  C 11.846153846153847 19.97883597883598  9.97584541062802 19.944444444444443  8.389074693422518 19.8968253968254  C 6.802303976217019 19.849206349206348  5.759197324414716 19.80952380952381  5.259754738015608 19.77777777777778  L 4.494983277591974 19.714285714285715  L 3.933110367892976 19.65079365079365  C 3.5585284280936453 19.597883597883598  3.2749907097733186 19.544973544973544  3.0824972129319956 19.49206349206349  C 2.8900037160906726 19.43915343915344  2.6246748420661468 19.32804232804233  2.2865105908584167 19.158730158730158  C 1.9483463396506875 18.989417989417987  1.6544035674470456 18.772486772486772  1.4046822742474916 18.50793650793651  C 1.3422519509476032 18.444444444444446  1.261612783351914 18.34656084656085  1.1627647714604237 18.214285714285715  C 1.0639167595689336 18.082010582010582  0.9130434782608695 17.772486772486772  0.7101449275362319 17.285714285714285  C 0.5072463768115942 16.798941798941797  0.36937941285767373 16.264550264550266  0.29654403567447046 15.682539682539682  C 0.21330360460795245 15.005291005291003  0.14827201783723526 14.283068783068781  0.10144927536231885 13.515873015873016  C 0.054626532887402456 12.748677248677245  0.026012634708286884 12.148148148148149  0.015607580824972128 11.714285714285712  L 0.015607580824972128 11.079365079365079  L 0.015607580824972128 8.920634920634921  C 0.005202526941657375 7.386243386243385  0.09884801189149015 5.85185185185185  0.29654403567447046 4.317460317460318  C 0.36937941285767373 3.735449735449734  0.4994425863991081 3.2089947089947057  0.6867335562987736 2.7380952380952372  C 0.8740245261984393 2.2671957671957665  1.0405053883314754 1.94179894179894  1.1861761426978819 1.7619047619047623  L 1.4046822742474916 1.4920634920634912  C 1.5503530286138985 1.333333333333333  1.701226309921962 1.1931216931216904  1.8573021181716833 1.071428571428572  C 2.0133779264214047 0.9497354497354493  2.1746562616127836 0.8465608465608443  2.3411371237458196 0.7619047619047614  C 2.5076179858788556 0.6772486772486741  2.653288740245262 0.608465608465607  2.778149386845039 0.5555555555555558  C 2.903010033444816 0.5026455026455001  3.051282051282051 0.4603174603174609  3.2229654403567447 0.42857142857142927  C 3.3946488294314388 0.39682539682539764  3.5169082125603874 0.3730158730158739  3.5897435897435894 0.3571428571428581  C 3.662578966926793 0.3412698412698423  3.782237086584913 0.32539682539682646  3.948717948717949 0.3095238095238084  C 4.115198810850985 0.2936507936507926  4.203641768859161 0.2857142857142847  4.214046822742475 0.2857142857142847  Z " fill-rule="evenodd" />
    </mask>
  </defs>
  <g transform="matrix(1 0 0 1 -217 -5127 )">
    <path d="M 11.112597547380156 5.698412698412698  L 11.112597547380156 13.682539682539684  L 18.666666666666664 9.714285714285715  L 11.112597547380156 5.698412698412698  Z M 4.214046822742475 0.2857142857142847  C 6.825715347454478 0.0952380952380949  10.087699739873651 0  14 0  C 15.748049052396878 0  17.436269044964696 0.023809523809523725  19.064659977703457 0.07142857142857117  C 20.693050910442217 0.11904761904761862  21.887030843552584 0.16931216931216797  22.64659977703456 0.22222222222222143  L 23.785953177257525 0.2857142857142847  C 23.796358231140843 0.2857142857142847  23.884801189149016 0.2936507936507926  24.05128205128205 0.3095238095238084  C 24.21776291341509 0.32539682539682646  24.337421033073213 0.3412698412698423  24.41025641025641 0.3571428571428581  C 24.483091787439612 0.3730158730158739  24.60535117056856 0.39682539682539764  24.777034559643255 0.42857142857142927  C 24.94871794871795 0.4603174603174609  25.09698996655518 0.5026455026455001  25.221850613154963 0.5555555555555558  C 25.346711259754738 0.608465608465607  25.492382014121148 0.6772486772486741  25.65886287625418 0.7619047619047614  C 25.82534373838722 0.8465608465608443  25.9866220735786 0.9497354497354493  26.142697881828315 1.071428571428572  C 26.29877369007804 1.1931216931216904  26.449646971386105 1.333333333333333  26.59531772575251 1.4920634920634912  C 26.657748049052394 1.5555555555555545  26.73838721664809 1.6534391534391513  26.837235228539576 1.785714285714286  C 26.93608324043107 1.9179894179894164  27.086956521739133 2.227513227513227  27.28985507246377 2.7142857142857135  C 27.49275362318841 3.201058201058198  27.630620587142328 3.735449735449734  27.703455964325528 4.317460317460318  C 27.786696395392052 4.9947089947089935  27.851727982162767 5.716931216931216  27.89855072463768 6.484126984126983  C 27.9453734671126 7.251322751322751  27.973987365291716 7.851851851851849  27.984392419175027 8.285714285714285  L 27.984392419175027 8.920634920634921  L 27.984392419175027 11.079365079365079  C 27.994797473058345 12.61375661375661  27.90115198810851 14.148148148148147  27.703455964325528 15.682539682539682  C 27.630620587142328 16.264550264550266  27.500557413600895 16.79100529100529  27.313266443701227 17.261904761904763  C 27.125975473801567 17.732804232804234  26.959494611668525 18.05820105820106  26.81382385730212 18.238095238095237  L 26.59531772575251 18.50793650793651  C 26.449646971386105 18.666666666666668  26.29877369007804 18.806878306878303  26.142697881828315 18.928571428571427  C 25.9866220735786 19.05026455026455  25.82534373838722 19.150793650793652  25.65886287625418 19.23015873015873  C 25.492382014121148 19.30952380952381  25.346711259754738 19.375661375661377  25.221850613154963 19.428571428571427  C 25.09698996655518 19.48148148148148  24.94871794871795 19.523809523809522  24.777034559643255 19.555555555555554  C 24.60535117056856 19.587301587301585  24.480490523968783 19.61111111111111  24.402452619843924 19.626984126984127  C 24.324414715719065 19.642857142857142  24.204756596060946 19.658730158730158  24.043478260869566 19.674603174603174  C 23.882199925678187 19.69047619047619  23.796358231140843 19.6984126984127  23.785953177257525 19.6984126984127  C 21.174284652545523 19.899470899470902  17.912300260126347 20  14 20  C 11.846153846153847 19.97883597883598  9.97584541062802 19.944444444444443  8.389074693422518 19.8968253968254  C 6.802303976217019 19.849206349206348  5.759197324414716 19.80952380952381  5.259754738015608 19.77777777777778  L 4.494983277591974 19.714285714285715  L 3.933110367892976 19.65079365079365  C 3.5585284280936453 19.597883597883598  3.2749907097733186 19.544973544973544  3.0824972129319956 19.49206349206349  C 2.8900037160906726 19.43915343915344  2.6246748420661468 19.32804232804233  2.2865105908584167 19.158730158730158  C 1.9483463396506875 18.989417989417987  1.6544035674470456 18.772486772486772  1.4046822742474916 18.50793650793651  C 1.3422519509476032 18.444444444444446  1.261612783351914 18.34656084656085  1.1627647714604237 18.214285714285715  C 1.0639167595689336 18.082010582010582  0.9130434782608695 17.772486772486772  0.7101449275362319 17.285714285714285  C 0.5072463768115942 16.798941798941797  0.36937941285767373 16.264550264550266  0.29654403567447046 15.682539682539682  C 0.21330360460795245 15.005291005291003  0.14827201783723526 14.283068783068781  0.10144927536231885 13.515873015873016  C 0.054626532887402456 12.748677248677245  0.026012634708286884 12.148148148148149  0.015607580824972128 11.714285714285712  L 0.015607580824972128 11.079365079365079  L 0.015607580824972128 8.920634920634921  C 0.005202526941657375 7.386243386243385  0.09884801189149015 5.85185185185185  0.29654403567447046 4.317460317460318  C 0.36937941285767373 3.735449735449734  0.4994425863991081 3.2089947089947057  0.6867335562987736 2.7380952380952372  C 0.8740245261984393 2.2671957671957665  1.0405053883314754 1.94179894179894  1.1861761426978819 1.7619047619047623  L 1.4046822742474916 1.4920634920634912  C 1.5503530286138985 1.333333333333333  1.701226309921962 1.1931216931216904  1.8573021181716833 1.071428571428572  C 2.0133779264214047 0.9497354497354493  2.1746562616127836 0.8465608465608443  2.3411371237458196 0.7619047619047614  C 2.5076179858788556 0.6772486772486741  2.653288740245262 0.608465608465607  2.778149386845039 0.5555555555555558  C 2.903010033444816 0.5026455026455001  3.051282051282051 0.4603174603174609  3.2229654403567447 0.42857142857142927  C 3.3946488294314388 0.39682539682539764  3.5169082125603874 0.3730158730158739  3.5897435897435894 0.3571428571428581  C 3.662578966926793 0.3412698412698423  3.782237086584913 0.32539682539682646  3.948717948717949 0.3095238095238084  C 4.115198810850985 0.2936507936507926  4.203641768859161 0.2857142857142847  4.214046822742475 0.2857142857142847  Z " fill-rule="nonzero" fill="rgba(255, 255, 255, 1)" stroke="none" transform="matrix(1 0 0 1 217 5127 )" class="fill" />
    <path d="M 11.112597547380156 5.698412698412698  L 11.112597547380156 13.682539682539684  L 18.666666666666664 9.714285714285715  L 11.112597547380156 5.698412698412698  Z " stroke-width="0" stroke-dasharray="0" stroke="rgba(255, 255, 255, 0)" fill="none" transform="matrix(1 0 0 1 217 5127 )" class="stroke" mask="url(#Clip3)" />
    <path d="M 4.214046822742475 0.2857142857142847  C 6.825715347454478 0.0952380952380949  10.087699739873651 0  14 0  C 15.748049052396878 0  17.436269044964696 0.023809523809523725  19.064659977703457 0.07142857142857117  C 20.693050910442217 0.11904761904761862  21.887030843552584 0.16931216931216797  22.64659977703456 0.22222222222222143  L 23.785953177257525 0.2857142857142847  C 23.796358231140843 0.2857142857142847  23.884801189149016 0.2936507936507926  24.05128205128205 0.3095238095238084  C 24.21776291341509 0.32539682539682646  24.337421033073213 0.3412698412698423  24.41025641025641 0.3571428571428581  C 24.483091787439612 0.3730158730158739  24.60535117056856 0.39682539682539764  24.777034559643255 0.42857142857142927  C 24.94871794871795 0.4603174603174609  25.09698996655518 0.5026455026455001  25.221850613154963 0.5555555555555558  C 25.346711259754738 0.608465608465607  25.492382014121148 0.6772486772486741  25.65886287625418 0.7619047619047614  C 25.82534373838722 0.8465608465608443  25.9866220735786 0.9497354497354493  26.142697881828315 1.071428571428572  C 26.29877369007804 1.1931216931216904  26.449646971386105 1.333333333333333  26.59531772575251 1.4920634920634912  C 26.657748049052394 1.5555555555555545  26.73838721664809 1.6534391534391513  26.837235228539576 1.785714285714286  C 26.93608324043107 1.9179894179894164  27.086956521739133 2.227513227513227  27.28985507246377 2.7142857142857135  C 27.49275362318841 3.201058201058198  27.630620587142328 3.735449735449734  27.703455964325528 4.317460317460318  C 27.786696395392052 4.9947089947089935  27.851727982162767 5.716931216931216  27.89855072463768 6.484126984126983  C 27.9453734671126 7.251322751322751  27.973987365291716 7.851851851851849  27.984392419175027 8.285714285714285  L 27.984392419175027 8.920634920634921  L 27.984392419175027 11.079365079365079  C 27.994797473058345 12.61375661375661  27.90115198810851 14.148148148148147  27.703455964325528 15.682539682539682  C 27.630620587142328 16.264550264550266  27.500557413600895 16.79100529100529  27.313266443701227 17.261904761904763  C 27.125975473801567 17.732804232804234  26.959494611668525 18.05820105820106  26.81382385730212 18.238095238095237  L 26.59531772575251 18.50793650793651  C 26.449646971386105 18.666666666666668  26.29877369007804 18.806878306878303  26.142697881828315 18.928571428571427  C 25.9866220735786 19.05026455026455  25.82534373838722 19.150793650793652  25.65886287625418 19.23015873015873  C 25.492382014121148 19.30952380952381  25.346711259754738 19.375661375661377  25.221850613154963 19.428571428571427  C 25.09698996655518 19.48148148148148  24.94871794871795 19.523809523809522  24.777034559643255 19.555555555555554  C 24.60535117056856 19.587301587301585  24.480490523968783 19.61111111111111  24.402452619843924 19.626984126984127  C 24.324414715719065 19.642857142857142  24.204756596060946 19.658730158730158  24.043478260869566 19.674603174603174  C 23.882199925678187 19.69047619047619  23.796358231140843 19.6984126984127  23.785953177257525 19.6984126984127  C 21.174284652545523 19.899470899470902  17.912300260126347 20  14 20  C 11.846153846153847 19.97883597883598  9.97584541062802 19.944444444444443  8.389074693422518 19.8968253968254  C 6.802303976217019 19.849206349206348  5.759197324414716 19.80952380952381  5.259754738015608 19.77777777777778  L 4.494983277591974 19.714285714285715  L 3.933110367892976 19.65079365079365  C 3.5585284280936453 19.597883597883598  3.2749907097733186 19.544973544973544  3.0824972129319956 19.49206349206349  C 2.8900037160906726 19.43915343915344  2.6246748420661468 19.32804232804233  2.2865105908584167 19.158730158730158  C 1.9483463396506875 18.989417989417987  1.6544035674470456 18.772486772486772  1.4046822742474916 18.50793650793651  C 1.3422519509476032 18.444444444444446  1.261612783351914 18.34656084656085  1.1627647714604237 18.214285714285715  C 1.0639167595689336 18.082010582010582  0.9130434782608695 17.772486772486772  0.7101449275362319 17.285714285714285  C 0.5072463768115942 16.798941798941797  0.36937941285767373 16.264550264550266  0.29654403567447046 15.682539682539682  C 0.21330360460795245 15.005291005291003  0.14827201783723526 14.283068783068781  0.10144927536231885 13.515873015873016  C 0.054626532887402456 12.748677248677245  0.026012634708286884 12.148148148148149  0.015607580824972128 11.714285714285712  L 0.015607580824972128 11.079365079365079  L 0.015607580824972128 8.920634920634921  C 0.005202526941657375 7.386243386243385  0.09884801189149015 5.85185185185185  0.29654403567447046 4.317460317460318  C 0.36937941285767373 3.735449735449734  0.4994425863991081 3.2089947089947057  0.6867335562987736 2.7380952380952372  C 0.8740245261984393 2.2671957671957665  1.0405053883314754 1.94179894179894  1.1861761426978819 1.7619047619047623  L 1.4046822742474916 1.4920634920634912  C 1.5503530286138985 1.333333333333333  1.701226309921962 1.1931216931216904  1.8573021181716833 1.071428571428572  C 2.0133779264214047 0.9497354497354493  2.1746562616127836 0.8465608465608443  2.3411371237458196 0.7619047619047614  C 2.5076179858788556 0.6772486772486741  2.653288740245262 0.608465608465607  2.778149386845039 0.5555555555555558  C 2.903010033444816 0.5026455026455001  3.051282051282051 0.4603174603174609  3.2229654403567447 0.42857142857142927  C 3.3946488294314388 0.39682539682539764  3.5169082125603874 0.3730158730158739  3.5897435897435894 0.3571428571428581  C 3.662578966926793 0.3412698412698423  3.782237086584913 0.32539682539682646  3.948717948717949 0.3095238095238084  C 4.115198810850985 0.2936507936507926  4.203641768859161 0.2857142857142847  4.214046822742475 0.2857142857142847  Z " stroke-width="0" stroke-dasharray="0" stroke="rgba(255, 255, 255, 0)" fill="none" transform="matrix(1 0 0 1 217 5127 )" class="stroke" mask="url(#Clip3)" />
  </g>
</svg>