<?xml version="1.0" encoding="UTF-8" standalone="no"?>
<!DOCTYPE svg PUBLIC "-//W3C//DTD SVG 1.1//EN" "http://www.w3.org/Graphics/SVG/1.1/DTD/svg11.dtd">
<svg width="1393px" height="244px" version="1.1" xmlns="http://www.w3.org/2000/svg" xmlns:xlink="http://www.w3.org/1999/xlink" xml:space="preserve" xmlns:serif="http://www.serif.com/" style="fill-rule:evenodd;clip-rule:evenodd;stroke-linejoin:round;stroke-miterlimit:2;">
    <g transform="matrix(1,0,0,1,-445.717,-1399.79)">
        <g>
            <g transform="matrix(0.975668,0,0,1,163.136,620.911)">
                <path d="M1044.44,900.502C1044.44,967.629 988.585,1022.13 919.783,1022.13L414.287,1022.13C345.486,1022.13 289.628,967.629 289.628,900.502C289.628,833.375 345.486,778.876 414.287,778.876L919.783,778.876C988.585,778.876 1044.44,833.375 1044.44,900.502Z" style="fill:rgb(217,38,38);"/>
            </g>
            <g transform="matrix(1,0,0,1,-423.559,454.413)">
                <path d="M1106.17,1142.07L1070.67,1142.07L1070.67,1080.22L1018.08,1080.22L1018.08,1142.07L982.373,1142.07L982.373,993.962L1018.08,993.962L1018.08,1052.76L1070.67,1052.76L1070.67,993.962L1106.17,993.962L1106.17,1142.07Z" style="fill:white;fill-rule:nonzero;"/>
                <path d="M1235.67,1089.79L1216.34,1089.79L1216.34,1142.07L1180.64,1142.07L1180.64,993.962L1238.92,993.962C1256.49,993.962 1270.22,997.861 1280.12,1005.66C1290.02,1013.46 1294.98,1024.48 1294.98,1038.72C1294.98,1049.03 1292.87,1057.57 1288.67,1064.36C1284.53,1071.14 1278.02,1076.63 1269.14,1080.84L1300.06,1140.55L1300.06,1142.07L1261.81,1142.07L1235.67,1089.79ZM1216.34,1062.22L1238.92,1062.22C1245.71,1062.22 1250.79,1060.46 1254.18,1056.93C1257.64,1053.34 1259.37,1048.35 1259.37,1041.98C1259.37,1035.6 1257.64,1030.62 1254.18,1027.02C1250.73,1023.36 1245.64,1021.53 1238.92,1021.53L1216.34,1021.53L1216.34,1062.22Z" style="fill:white;fill-rule:nonzero;"/>
                <path d="M1418.78,1086.94L1404.13,1103.01L1404.13,1142.07L1368.42,1142.07L1368.42,993.962L1404.13,993.962L1404.13,1059.27L1416.54,1040.45L1448.48,993.962L1492.63,993.962L1442.58,1059.47L1492.63,1142.07L1450.31,1142.07L1418.78,1086.94Z" style="fill:white;fill-rule:nonzero;"/>
            </g>
            <g transform="matrix(1,0,0,1,-19.1852,282.587)">
                <path d="M1398.74,1311.87L1379.11,1311.87L1304.55,1197.73L1304.55,1311.87L1284.91,1311.87L1284.91,1163.75L1304.55,1163.75L1379.31,1278.4L1379.31,1163.75L1398.74,1163.75L1398.74,1311.87Z" style="fill:white;fill-rule:nonzero;"/>
                <path d="M1501.94,1313.9C1487.02,1313.9 1474.88,1309.02 1465.53,1299.25C1456.17,1289.42 1451.49,1276.3 1451.49,1259.88L1451.49,1256.42C1451.49,1245.51 1453.56,1235.77 1457.69,1227.23C1461.9,1218.62 1467.73,1211.9 1475.19,1207.09C1482.72,1202.2 1490.85,1199.76 1499.6,1199.76C1513.91,1199.76 1525.03,1204.48 1532.97,1213.9C1540.9,1223.33 1544.87,1236.83 1544.87,1254.39L1544.87,1262.22L1470.31,1262.22C1470.58,1273.07 1473.73,1281.86 1479.77,1288.57C1485.87,1295.22 1493.6,1298.54 1502.96,1298.54C1509.61,1298.54 1515.24,1297.18 1519.85,1294.47C1524.46,1291.76 1528.49,1288.16 1531.95,1283.69L1543.45,1292.64C1534.22,1306.81 1520.39,1313.9 1501.94,1313.9ZM1499.6,1215.23C1492.01,1215.23 1485.63,1218.01 1480.48,1223.57C1475.32,1229.06 1472.14,1236.79 1470.92,1246.76L1526.05,1246.76L1526.05,1245.34C1525.51,1235.77 1522.93,1228.38 1518.32,1223.16C1513.71,1217.87 1507.47,1215.23 1499.6,1215.23Z" style="fill:white;fill-rule:nonzero;"/>
                <path d="M1689.88,1285.92L1711.04,1201.8L1729.86,1201.8L1697.82,1311.87L1682.56,1311.87L1655.8,1228.45L1629.76,1311.87L1614.5,1311.87L1582.56,1201.8L1601.28,1201.8L1622.94,1284.2L1648.58,1201.8L1663.74,1201.8L1689.88,1285.92Z" style="fill:white;fill-rule:nonzero;"/>
                <path d="M1838.86,1282.67C1838.86,1277.58 1836.92,1273.65 1833.06,1270.87C1829.26,1268.02 1822.58,1265.58 1813.02,1263.55C1803.52,1261.51 1795.96,1259.07 1790.33,1256.22C1784.77,1253.37 1780.64,1249.98 1777.92,1246.05C1775.28,1242.12 1773.96,1237.44 1773.96,1232.01C1773.96,1222.99 1777.75,1215.36 1785.35,1209.12C1793.01,1202.88 1802.78,1199.76 1814.65,1199.76C1827.12,1199.76 1837.23,1202.99 1844.96,1209.43C1852.76,1215.87 1856.66,1224.11 1856.66,1234.15L1837.74,1234.15C1837.74,1228.99 1835.53,1224.55 1831.12,1220.82C1826.79,1217.09 1821.29,1215.23 1814.65,1215.23C1807.8,1215.23 1802.44,1216.72 1798.57,1219.7C1794.71,1222.69 1792.78,1226.59 1792.78,1231.4C1792.78,1235.94 1794.57,1239.37 1798.17,1241.67C1801.76,1243.98 1808.24,1246.18 1817.6,1248.29C1827.02,1250.39 1834.65,1252.9 1840.48,1255.81C1846.32,1258.73 1850.62,1262.26 1853.4,1266.39C1856.25,1270.46 1857.68,1275.45 1857.68,1281.35C1857.68,1291.18 1853.74,1299.08 1845.88,1305.05C1838.01,1310.95 1827.8,1313.9 1815.26,1313.9C1806.44,1313.9 1798.64,1312.34 1791.86,1309.22C1785.08,1306.1 1779.75,1301.76 1775.89,1296.2C1772.09,1290.57 1770.19,1284.5 1770.19,1277.99L1789.01,1277.99C1789.35,1284.3 1791.86,1289.32 1796.54,1293.05C1801.29,1296.71 1807.53,1298.54 1815.26,1298.54C1822.38,1298.54 1828.07,1297.12 1832.35,1294.27C1836.69,1291.35 1838.86,1287.49 1838.86,1282.67Z" style="fill:white;fill-rule:nonzero;"/>
            </g>
        </g>
    </g>
</svg>
