<?xml version="1.0" encoding="UTF-8" standalone="no"?>
<!DOCTYPE svg PUBLIC "-//W3C//DTD SVG 1.1//EN" "http://www.w3.org/Graphics/SVG/1.1/DTD/svg11.dtd">
<svg width="737px" height="244px" version="1.1" xmlns="http://www.w3.org/2000/svg" xmlns:xlink="http://www.w3.org/1999/xlink" xml:space="preserve" xmlns:serif="http://www.serif.com/" style="fill-rule:evenodd;clip-rule:evenodd;stroke-linejoin:round;stroke-miterlimit:2;">
    <g transform="matrix(1,0,0,1,22.6193,-1060.01)">
        <g>
            <g transform="matrix(0.975668,0,0,1,-305.2,281.138)">
                <path d="M1044.44,900.502C1044.44,967.629 988.585,1022.13 919.783,1022.13L414.287,1022.13C345.486,1022.13 289.628,967.629 289.628,900.502C289.628,833.375 345.486,778.876 414.287,778.876L919.783,778.876C988.585,778.876 1044.44,833.375 1044.44,900.502Z" style="fill:rgb(217,38,38);"/>
            </g>
            <g transform="matrix(1,0,0,1,-891.895,114.639)">
                <path d="M1106.17,1142.07L1070.67,1142.07L1070.67,1080.22L1018.08,1080.22L1018.08,1142.07L982.373,1142.07L982.373,993.962L1018.08,993.962L1018.08,1052.76L1070.67,1052.76L1070.67,993.962L1106.17,993.962L1106.17,1142.07Z" style="fill:white;fill-rule:nonzero;"/>
                <path d="M1235.67,1089.79L1216.34,1089.79L1216.34,1142.07L1180.64,1142.07L1180.64,993.962L1238.92,993.962C1256.49,993.962 1270.22,997.861 1280.12,1005.66C1290.02,1013.46 1294.98,1024.48 1294.98,1038.72C1294.98,1049.03 1292.87,1057.57 1288.67,1064.36C1284.53,1071.14 1278.02,1076.63 1269.14,1080.84L1300.06,1140.55L1300.06,1142.07L1261.81,1142.07L1235.67,1089.79ZM1216.34,1062.22L1238.92,1062.22C1245.71,1062.22 1250.79,1060.46 1254.18,1056.93C1257.64,1053.34 1259.37,1048.35 1259.37,1041.98C1259.37,1035.6 1257.64,1030.62 1254.18,1027.02C1250.73,1023.36 1245.64,1021.53 1238.92,1021.53L1216.34,1021.53L1216.34,1062.22Z" style="fill:white;fill-rule:nonzero;"/>
                <path d="M1418.78,1086.94L1404.13,1103.01L1404.13,1142.07L1368.42,1142.07L1368.42,993.962L1404.13,993.962L1404.13,1059.27L1416.54,1040.45L1448.48,993.962L1492.63,993.962L1442.58,1059.47L1492.63,1142.07L1450.31,1142.07L1418.78,1086.94Z" style="fill:white;fill-rule:nonzero;"/>
            </g>
        </g>
    </g>
</svg>
