<?xml version="1.0" encoding="utf-8"?>
<svg version="1.1" xmlns:xlink="http://www.w3.org/1999/xlink" width="20px" height="20px" xmlns="http://www.w3.org/2000/svg">
  <defs>
    <pattern id="BGPattern" patternUnits="userSpaceOnUse" alignment="0 0" imageRepeat="None" />
    <mask fill="white" id="Clip2">
      <path d="M 12.356770833333332 12.356770833333336  C 13.0078125 11.705729166666664  13.333333333333332 10.92013888888889  13.333333333333332 10  C 13.333333333333332 9.079861111111109  13.0078125 8.294270833333332  12.356770833333332 7.643229166666668  C 11.705729166666668 6.9921875  10.920138888888891 6.666666666666668  10 6.666666666666668  C 9.07986111111111 6.666666666666668  8.294270833333334 6.9921875  7.643229166666666 7.643229166666668  C 6.9921875 8.294270833333332  6.666666666666666 9.079861111111109  6.666666666666666 10  C 6.666666666666666 10.92013888888889  6.9921875 11.705729166666664  7.643229166666666 12.356770833333336  C 8.294270833333334 13.0078125  9.07986111111111 13.333333333333336  10 13.333333333333336  C 10.920138888888891 13.333333333333336  11.705729166666668 13.0078125  12.356770833333332 12.356770833333336  Z M 13.6328125 6.3671875  C 14.631076388888891 7.365451388888886  15.130208333333332 8.576388888888886  15.130208333333332 10  C 15.130208333333332 11.42361111111111  14.631076388888891 12.63454861111111  13.6328125 13.6328125  C 12.63454861111111 14.63107638888889  11.42361111111111 15.130208333333332  10 15.130208333333332  C 8.57638888888889 15.130208333333332  7.365451388888889 14.63107638888889  6.3671875 13.6328125  C 5.368923611111112 12.63454861111111  4.869791666666667 11.42361111111111  4.869791666666667 10  C 4.869791666666667 8.576388888888886  5.368923611111112 7.365451388888886  6.3671875 6.3671875  C 7.365451388888889 5.368923611111109  8.57638888888889 4.869791666666668  10 4.869791666666668  C 11.42361111111111 4.869791666666668  12.63454861111111 5.368923611111109  13.6328125 6.3671875  Z M 16.184895833333332 3.8151041666666674  C 16.419270833333332 4.049479166666668  16.536458333333332 4.331597222222221  16.536458333333332 4.661458333333332  C 16.536458333333332 4.991319444444445  16.419270833333332 5.2734375  16.184895833333332 5.5078125  C 15.950520833333332 5.7421875  15.668402777777779 5.859375  15.338541666666668 5.859375  C 15.008680555555555 5.859375  14.7265625 5.7421875  14.4921875 5.5078125  C 14.2578125 5.2734375  14.140625 4.991319444444445  14.140625 4.661458333333332  C 14.140625 4.331597222222221  14.2578125 4.049479166666668  14.4921875 3.8151041666666674  C 14.7265625 3.5807291666666674  15.008680555555555 3.4635416666666674  15.338541666666668 3.4635416666666674  C 15.668402777777779 3.4635416666666674  15.950520833333332 3.5807291666666674  16.184895833333332 3.8151041666666674  Z M 10.99609375 1.7903645833333326  C 10.392795138888891 1.7947048611111094  10.060763888888891 1.796875  10 1.796875  C 9.93923611111111 1.796875  9.60720486111111 1.7947048611111094  9.00390625 1.7903645833333326  C 8.40060763888889 1.7860243055555536  7.942708333333334 1.7860243055555536  7.630208333333334 1.7903645833333326  C 7.317708333333334 1.7947048611111094  6.898871527777778 1.8077256944444442  6.373697916666666 1.8294270833333326  C 5.848524305555557 1.851128472222221  5.4014756944444455 1.89453125  5.032552083333334 1.9596354166666674  C 4.663628472222222 2.0247395833333326  4.353298611111112 2.105034722222221  4.1015625 2.2005208333333326  C 3.6675347222222228 2.374131944444444  3.2855902777777777 2.6258680555555536  2.955729166666667 2.9557291666666674  C 2.625868055555556 3.285590277777777  2.3741319444444446 3.667534722222221  2.2005208333333335 4.1015625  C 2.1050347222222223 4.353298611111109  2.0247395833333335 4.663628472222221  1.9596354166666665 5.032552083333332  C 1.89453125 5.401475694444445  1.8511284722222223 5.848524305555554  1.8294270833333335 6.373697916666668  C 1.8077256944444444 6.898871527777777  1.7947048611111114 7.317708333333332  1.7903645833333335 7.630208333333332  C 1.7860243055555558 7.942708333333332  1.7860243055555558 8.400607638888886  1.7903645833333335 9.00390625  C 1.7947048611111114 9.607204861111109  1.796875 9.939236111111109  1.796875 10  C 1.796875 10.06076388888889  1.7947048611111114 10.39279513888889  1.7903645833333335 10.99609375  C 1.7860243055555558 11.59939236111111  1.7860243055555558 12.057291666666664  1.7903645833333335 12.369791666666664  C 1.7947048611111114 12.682291666666664  1.8077256944444444 13.101128472222218  1.8294270833333335 13.626302083333336  C 1.8511284722222223 14.151475694444443  1.89453125 14.598524305555554  1.9596354166666665 14.967447916666664  C 2.0247395833333335 15.336371527777777  2.1050347222222223 15.646701388888886  2.2005208333333335 15.8984375  C 2.3741319444444446 16.33246527777778  2.625868055555556 16.71440972222222  2.955729166666667 17.044270833333332  C 3.2855902777777777 17.374131944444443  3.6675347222222228 17.625868055555557  4.1015625 17.799479166666668  C 4.353298611111112 17.89496527777778  4.663628472222222 17.975260416666668  5.032552083333334 18.040364583333332  C 5.4014756944444455 18.10546875  5.848524305555557 18.14887152777778  6.373697916666666 18.170572916666668  C 6.898871527777778 18.192274305555557  7.317708333333334 18.20529513888889  7.630208333333334 18.209635416666668  C 7.942708333333334 18.213975694444443  8.40060763888889 18.213975694444443  9.00390625 18.209635416666668  C 9.60720486111111 18.20529513888889  9.93923611111111 18.203125  10 18.203125  C 10.060763888888891 18.203125  10.392795138888891 18.20529513888889  10.99609375 18.209635416666668  C 11.59939236111111 18.213975694444443  12.057291666666668 18.213975694444443  12.369791666666668 18.209635416666668  C 12.682291666666668 18.20529513888889  13.101128472222223 18.192274305555557  13.626302083333332 18.170572916666668  C 14.151475694444446 18.14887152777778  14.598524305555555 18.10546875  14.967447916666668 18.040364583333332  C 15.336371527777779 17.975260416666668  15.646701388888891 17.89496527777778  15.8984375 17.799479166666668  C 16.33246527777778 17.625868055555557  16.71440972222222 17.374131944444443  17.044270833333332 17.044270833333332  C 17.374131944444446 16.71440972222222  17.625868055555557 16.33246527777778  17.799479166666668 15.8984375  C 17.89496527777778 15.646701388888886  17.975260416666668 15.336371527777777  18.040364583333332 14.967447916666664  C 18.10546875 14.598524305555554  18.14887152777778 14.151475694444443  18.170572916666668 13.626302083333336  C 18.192274305555557 13.101128472222218  18.20529513888889 12.682291666666664  18.209635416666668 12.369791666666664  C 18.213975694444446 12.057291666666664  18.213975694444446 11.59939236111111  18.209635416666668 10.99609375  C 18.20529513888889 10.39279513888889  18.203125 10.06076388888889  18.203125 10  C 18.203125 9.939236111111109  18.20529513888889 9.607204861111109  18.209635416666668 9.00390625  C 18.213975694444446 8.400607638888886  18.213975694444446 7.942708333333332  18.209635416666668 7.630208333333332  C 18.20529513888889 7.317708333333332  18.192274305555557 6.898871527777777  18.170572916666668 6.373697916666668  C 18.14887152777778 5.848524305555554  18.10546875 5.401475694444445  18.040364583333332 5.032552083333332  C 17.975260416666668 4.663628472222221  17.89496527777778 4.353298611111109  17.799479166666668 4.1015625  C 17.625868055555557 3.667534722222221  17.374131944444446 3.285590277777777  17.044270833333332 2.9557291666666674  C 16.71440972222222 2.6258680555555536  16.33246527777778 2.374131944444444  15.8984375 2.2005208333333326  C 15.646701388888891 2.105034722222221  15.336371527777779 2.0247395833333326  14.967447916666668 1.9596354166666674  C 14.598524305555555 1.89453125  14.151475694444446 1.851128472222221  13.626302083333332 1.8294270833333326  C 13.101128472222223 1.8077256944444442  12.682291666666668 1.7947048611111094  12.369791666666668 1.7903645833333326  C 12.057291666666668 1.7860243055555536  11.59939236111111 1.7860243055555536  10.99609375 1.7903645833333326  Z M 19.934895833333332 5.872395833333332  C 19.97829861111111 6.636284722222221  20 8.012152777777777  20 10  C 20 11.987847222222223  19.97829861111111 13.363715277777777  19.934895833333332 14.127604166666664  C 19.84809027777778 15.933159722222223  19.309895833333332 17.330729166666668  18.3203125 18.3203125  C 17.330729166666668 19.309895833333332  15.933159722222223 19.84809027777778  14.127604166666668 19.934895833333332  C 13.363715277777779 19.97829861111111  11.987847222222223 20  10 20  C 8.012152777777779 20  6.636284722222222 19.97829861111111  5.872395833333334 19.934895833333332  C 4.066840277777779 19.84809027777778  2.669270833333334 19.309895833333332  1.6796875 18.3203125  C 0.6901041666666667 17.330729166666668  0.15190972222222224 15.933159722222223  0.06510416666666667 14.127604166666664  C 0.021701388888888885 13.363715277777777  0 11.987847222222223  0 10  C 0 8.012152777777777  0.021701388888888885 6.636284722222221  0.06510416666666667 5.872395833333332  C 0.15190972222222224 4.066840277777777  0.6901041666666667 2.6692708333333326  1.6796875 1.6796875  C 2.669270833333334 0.6901041666666674  4.066840277777779 0.151909722222221  5.872395833333334 0.0651041666666674  C 6.636284722222222 0.021701388888886175  8.012152777777779 0  10 0  C 11.987847222222223 0  13.363715277777779 0.021701388888886175  14.127604166666668 0.0651041666666674  C 15.933159722222223 0.151909722222221  17.330729166666668 0.6901041666666674  18.3203125 1.6796875  C 19.309895833333332 2.6692708333333326  19.84809027777778 4.066840277777777  19.934895833333332 5.872395833333332  Z " fill-rule="evenodd" />
    </mask>
  </defs>
  <g transform="matrix(1 0 0 1 -185 -5127 )">
    <path d="M 12.356770833333332 12.356770833333336  C 13.0078125 11.705729166666664  13.333333333333332 10.92013888888889  13.333333333333332 10  C 13.333333333333332 9.079861111111109  13.0078125 8.294270833333332  12.356770833333332 7.643229166666668  C 11.705729166666668 6.9921875  10.920138888888891 6.666666666666668  10 6.666666666666668  C 9.07986111111111 6.666666666666668  8.294270833333334 6.9921875  7.643229166666666 7.643229166666668  C 6.9921875 8.294270833333332  6.666666666666666 9.079861111111109  6.666666666666666 10  C 6.666666666666666 10.92013888888889  6.9921875 11.705729166666664  7.643229166666666 12.356770833333336  C 8.294270833333334 13.0078125  9.07986111111111 13.333333333333336  10 13.333333333333336  C 10.920138888888891 13.333333333333336  11.705729166666668 13.0078125  12.356770833333332 12.356770833333336  Z M 13.6328125 6.3671875  C 14.631076388888891 7.365451388888886  15.130208333333332 8.576388888888886  15.130208333333332 10  C 15.130208333333332 11.42361111111111  14.631076388888891 12.63454861111111  13.6328125 13.6328125  C 12.63454861111111 14.63107638888889  11.42361111111111 15.130208333333332  10 15.130208333333332  C 8.57638888888889 15.130208333333332  7.365451388888889 14.63107638888889  6.3671875 13.6328125  C 5.368923611111112 12.63454861111111  4.869791666666667 11.42361111111111  4.869791666666667 10  C 4.869791666666667 8.576388888888886  5.368923611111112 7.365451388888886  6.3671875 6.3671875  C 7.365451388888889 5.368923611111109  8.57638888888889 4.869791666666668  10 4.869791666666668  C 11.42361111111111 4.869791666666668  12.63454861111111 5.368923611111109  13.6328125 6.3671875  Z M 16.184895833333332 3.8151041666666674  C 16.419270833333332 4.049479166666668  16.536458333333332 4.331597222222221  16.536458333333332 4.661458333333332  C 16.536458333333332 4.991319444444445  16.419270833333332 5.2734375  16.184895833333332 5.5078125  C 15.950520833333332 5.7421875  15.668402777777779 5.859375  15.338541666666668 5.859375  C 15.008680555555555 5.859375  14.7265625 5.7421875  14.4921875 5.5078125  C 14.2578125 5.2734375  14.140625 4.991319444444445  14.140625 4.661458333333332  C 14.140625 4.331597222222221  14.2578125 4.049479166666668  14.4921875 3.8151041666666674  C 14.7265625 3.5807291666666674  15.008680555555555 3.4635416666666674  15.338541666666668 3.4635416666666674  C 15.668402777777779 3.4635416666666674  15.950520833333332 3.5807291666666674  16.184895833333332 3.8151041666666674  Z M 10.99609375 1.7903645833333326  C 10.392795138888891 1.7947048611111094  10.060763888888891 1.796875  10 1.796875  C 9.93923611111111 1.796875  9.60720486111111 1.7947048611111094  9.00390625 1.7903645833333326  C 8.40060763888889 1.7860243055555536  7.942708333333334 1.7860243055555536  7.630208333333334 1.7903645833333326  C 7.317708333333334 1.7947048611111094  6.898871527777778 1.8077256944444442  6.373697916666666 1.8294270833333326  C 5.848524305555557 1.851128472222221  5.4014756944444455 1.89453125  5.032552083333334 1.9596354166666674  C 4.663628472222222 2.0247395833333326  4.353298611111112 2.105034722222221  4.1015625 2.2005208333333326  C 3.6675347222222228 2.374131944444444  3.2855902777777777 2.6258680555555536  2.955729166666667 2.9557291666666674  C 2.625868055555556 3.285590277777777  2.3741319444444446 3.667534722222221  2.2005208333333335 4.1015625  C 2.1050347222222223 4.353298611111109  2.0247395833333335 4.663628472222221  1.9596354166666665 5.032552083333332  C 1.89453125 5.401475694444445  1.8511284722222223 5.848524305555554  1.8294270833333335 6.373697916666668  C 1.8077256944444444 6.898871527777777  1.7947048611111114 7.317708333333332  1.7903645833333335 7.630208333333332  C 1.7860243055555558 7.942708333333332  1.7860243055555558 8.400607638888886  1.7903645833333335 9.00390625  C 1.7947048611111114 9.607204861111109  1.796875 9.939236111111109  1.796875 10  C 1.796875 10.06076388888889  1.7947048611111114 10.39279513888889  1.7903645833333335 10.99609375  C 1.7860243055555558 11.59939236111111  1.7860243055555558 12.057291666666664  1.7903645833333335 12.369791666666664  C 1.7947048611111114 12.682291666666664  1.8077256944444444 13.101128472222218  1.8294270833333335 13.626302083333336  C 1.8511284722222223 14.151475694444443  1.89453125 14.598524305555554  1.9596354166666665 14.967447916666664  C 2.0247395833333335 15.336371527777777  2.1050347222222223 15.646701388888886  2.2005208333333335 15.8984375  C 2.3741319444444446 16.33246527777778  2.625868055555556 16.71440972222222  2.955729166666667 17.044270833333332  C 3.2855902777777777 17.374131944444443  3.6675347222222228 17.625868055555557  4.1015625 17.799479166666668  C 4.353298611111112 17.89496527777778  4.663628472222222 17.975260416666668  5.032552083333334 18.040364583333332  C 5.4014756944444455 18.10546875  5.848524305555557 18.14887152777778  6.373697916666666 18.170572916666668  C 6.898871527777778 18.192274305555557  7.317708333333334 18.20529513888889  7.630208333333334 18.209635416666668  C 7.942708333333334 18.213975694444443  8.40060763888889 18.213975694444443  9.00390625 18.209635416666668  C 9.60720486111111 18.20529513888889  9.93923611111111 18.203125  10 18.203125  C 10.060763888888891 18.203125  10.392795138888891 18.20529513888889  10.99609375 18.209635416666668  C 11.59939236111111 18.213975694444443  12.057291666666668 18.213975694444443  12.369791666666668 18.209635416666668  C 12.682291666666668 18.20529513888889  13.101128472222223 18.192274305555557  13.626302083333332 18.170572916666668  C 14.151475694444446 18.14887152777778  14.598524305555555 18.10546875  14.967447916666668 18.040364583333332  C 15.336371527777779 17.975260416666668  15.646701388888891 17.89496527777778  15.8984375 17.799479166666668  C 16.33246527777778 17.625868055555557  16.71440972222222 17.374131944444443  17.044270833333332 17.044270833333332  C 17.374131944444446 16.71440972222222  17.625868055555557 16.33246527777778  17.799479166666668 15.8984375  C 17.89496527777778 15.646701388888886  17.975260416666668 15.336371527777777  18.040364583333332 14.967447916666664  C 18.10546875 14.598524305555554  18.14887152777778 14.151475694444443  18.170572916666668 13.626302083333336  C 18.192274305555557 13.101128472222218  18.20529513888889 12.682291666666664  18.209635416666668 12.369791666666664  C 18.213975694444446 12.057291666666664  18.213975694444446 11.59939236111111  18.209635416666668 10.99609375  C 18.20529513888889 10.39279513888889  18.203125 10.06076388888889  18.203125 10  C 18.203125 9.939236111111109  18.20529513888889 9.607204861111109  18.209635416666668 9.00390625  C 18.213975694444446 8.400607638888886  18.213975694444446 7.942708333333332  18.209635416666668 7.630208333333332  C 18.20529513888889 7.317708333333332  18.192274305555557 6.898871527777777  18.170572916666668 6.373697916666668  C 18.14887152777778 5.848524305555554  18.10546875 5.401475694444445  18.040364583333332 5.032552083333332  C 17.975260416666668 4.663628472222221  17.89496527777778 4.353298611111109  17.799479166666668 4.1015625  C 17.625868055555557 3.667534722222221  17.374131944444446 3.285590277777777  17.044270833333332 2.9557291666666674  C 16.71440972222222 2.6258680555555536  16.33246527777778 2.374131944444444  15.8984375 2.2005208333333326  C 15.646701388888891 2.105034722222221  15.336371527777779 2.0247395833333326  14.967447916666668 1.9596354166666674  C 14.598524305555555 1.89453125  14.151475694444446 1.851128472222221  13.626302083333332 1.8294270833333326  C 13.101128472222223 1.8077256944444442  12.682291666666668 1.7947048611111094  12.369791666666668 1.7903645833333326  C 12.057291666666668 1.7860243055555536  11.59939236111111 1.7860243055555536  10.99609375 1.7903645833333326  Z M 19.934895833333332 5.872395833333332  C 19.97829861111111 6.636284722222221  20 8.012152777777777  20 10  C 20 11.987847222222223  19.97829861111111 13.363715277777777  19.934895833333332 14.127604166666664  C 19.84809027777778 15.933159722222223  19.309895833333332 17.330729166666668  18.3203125 18.3203125  C 17.330729166666668 19.309895833333332  15.933159722222223 19.84809027777778  14.127604166666668 19.934895833333332  C 13.363715277777779 19.97829861111111  11.987847222222223 20  10 20  C 8.012152777777779 20  6.636284722222222 19.97829861111111  5.872395833333334 19.934895833333332  C 4.066840277777779 19.84809027777778  2.669270833333334 19.309895833333332  1.6796875 18.3203125  C 0.6901041666666667 17.330729166666668  0.15190972222222224 15.933159722222223  0.06510416666666667 14.127604166666664  C 0.021701388888888885 13.363715277777777  0 11.987847222222223  0 10  C 0 8.012152777777777  0.021701388888888885 6.636284722222221  0.06510416666666667 5.872395833333332  C 0.15190972222222224 4.066840277777777  0.6901041666666667 2.6692708333333326  1.6796875 1.6796875  C 2.669270833333334 0.6901041666666674  4.066840277777779 0.151909722222221  5.872395833333334 0.0651041666666674  C 6.636284722222222 0.021701388888886175  8.012152777777779 0  10 0  C 11.987847222222223 0  13.363715277777779 0.021701388888886175  14.127604166666668 0.0651041666666674  C 15.933159722222223 0.151909722222221  17.330729166666668 0.6901041666666674  18.3203125 1.6796875  C 19.309895833333332 2.6692708333333326  19.84809027777778 4.066840277777777  19.934895833333332 5.872395833333332  Z " fill-rule="nonzero" fill="rgba(255, 255, 255, 1)" stroke="none" transform="matrix(1 0 0 1 185 5127 )" class="fill" />
    <path d="M 12.356770833333332 12.356770833333336  C 13.0078125 11.705729166666664  13.333333333333332 10.92013888888889  13.333333333333332 10  C 13.333333333333332 9.079861111111109  13.0078125 8.294270833333332  12.356770833333332 7.643229166666668  C 11.705729166666668 6.9921875  10.920138888888891 6.666666666666668  10 6.666666666666668  C 9.07986111111111 6.666666666666668  8.294270833333334 6.9921875  7.643229166666666 7.643229166666668  C 6.9921875 8.294270833333332  6.666666666666666 9.079861111111109  6.666666666666666 10  C 6.666666666666666 10.92013888888889  6.9921875 11.705729166666664  7.643229166666666 12.356770833333336  C 8.294270833333334 13.0078125  9.07986111111111 13.333333333333336  10 13.333333333333336  C 10.920138888888891 13.333333333333336  11.705729166666668 13.0078125  12.356770833333332 12.356770833333336  Z " stroke-width="0" stroke-dasharray="0" stroke="rgba(255, 255, 255, 0)" fill="none" transform="matrix(1 0 0 1 185 5127 )" class="stroke" mask="url(#Clip2)" />
    <path d="M 13.6328125 6.3671875  C 14.631076388888891 7.365451388888886  15.130208333333332 8.576388888888886  15.130208333333332 10  C 15.130208333333332 11.42361111111111  14.631076388888891 12.63454861111111  13.6328125 13.6328125  C 12.63454861111111 14.63107638888889  11.42361111111111 15.130208333333332  10 15.130208333333332  C 8.57638888888889 15.130208333333332  7.365451388888889 14.63107638888889  6.3671875 13.6328125  C 5.368923611111112 12.63454861111111  4.869791666666667 11.42361111111111  4.869791666666667 10  C 4.869791666666667 8.576388888888886  5.368923611111112 7.365451388888886  6.3671875 6.3671875  C 7.365451388888889 5.368923611111109  8.57638888888889 4.869791666666668  10 4.869791666666668  C 11.42361111111111 4.869791666666668  12.63454861111111 5.368923611111109  13.6328125 6.3671875  Z " stroke-width="0" stroke-dasharray="0" stroke="rgba(255, 255, 255, 0)" fill="none" transform="matrix(1 0 0 1 185 5127 )" class="stroke" mask="url(#Clip2)" />
    <path d="M 16.184895833333332 3.8151041666666674  C 16.419270833333332 4.049479166666668  16.536458333333332 4.331597222222221  16.536458333333332 4.661458333333332  C 16.536458333333332 4.991319444444445  16.419270833333332 5.2734375  16.184895833333332 5.5078125  C 15.950520833333332 5.7421875  15.668402777777779 5.859375  15.338541666666668 5.859375  C 15.008680555555555 5.859375  14.7265625 5.7421875  14.4921875 5.5078125  C 14.2578125 5.2734375  14.140625 4.991319444444445  14.140625 4.661458333333332  C 14.140625 4.331597222222221  14.2578125 4.049479166666668  14.4921875 3.8151041666666674  C 14.7265625 3.5807291666666674  15.008680555555555 3.4635416666666674  15.338541666666668 3.4635416666666674  C 15.668402777777779 3.4635416666666674  15.950520833333332 3.5807291666666674  16.184895833333332 3.8151041666666674  Z " stroke-width="0" stroke-dasharray="0" stroke="rgba(255, 255, 255, 0)" fill="none" transform="matrix(1 0 0 1 185 5127 )" class="stroke" mask="url(#Clip2)" />
    <path d="M 10.99609375 1.7903645833333326  C 10.392795138888891 1.7947048611111094  10.060763888888891 1.796875  10 1.796875  C 9.93923611111111 1.796875  9.60720486111111 1.7947048611111094  9.00390625 1.7903645833333326  C 8.40060763888889 1.7860243055555536  7.942708333333334 1.7860243055555536  7.630208333333334 1.7903645833333326  C 7.317708333333334 1.7947048611111094  6.898871527777778 1.8077256944444442  6.373697916666666 1.8294270833333326  C 5.848524305555557 1.851128472222221  5.4014756944444455 1.89453125  5.032552083333334 1.9596354166666674  C 4.663628472222222 2.0247395833333326  4.353298611111112 2.105034722222221  4.1015625 2.2005208333333326  C 3.6675347222222228 2.374131944444444  3.2855902777777777 2.6258680555555536  2.955729166666667 2.9557291666666674  C 2.625868055555556 3.285590277777777  2.3741319444444446 3.667534722222221  2.2005208333333335 4.1015625  C 2.1050347222222223 4.353298611111109  2.0247395833333335 4.663628472222221  1.9596354166666665 5.032552083333332  C 1.89453125 5.401475694444445  1.8511284722222223 5.848524305555554  1.8294270833333335 6.373697916666668  C 1.8077256944444444 6.898871527777777  1.7947048611111114 7.317708333333332  1.7903645833333335 7.630208333333332  C 1.7860243055555558 7.942708333333332  1.7860243055555558 8.400607638888886  1.7903645833333335 9.00390625  C 1.7947048611111114 9.607204861111109  1.796875 9.939236111111109  1.796875 10  C 1.796875 10.06076388888889  1.7947048611111114 10.39279513888889  1.7903645833333335 10.99609375  C 1.7860243055555558 11.59939236111111  1.7860243055555558 12.057291666666664  1.7903645833333335 12.369791666666664  C 1.7947048611111114 12.682291666666664  1.8077256944444444 13.101128472222218  1.8294270833333335 13.626302083333336  C 1.8511284722222223 14.151475694444443  1.89453125 14.598524305555554  1.9596354166666665 14.967447916666664  C 2.0247395833333335 15.336371527777777  2.1050347222222223 15.646701388888886  2.2005208333333335 15.8984375  C 2.3741319444444446 16.33246527777778  2.625868055555556 16.71440972222222  2.955729166666667 17.044270833333332  C 3.2855902777777777 17.374131944444443  3.6675347222222228 17.625868055555557  4.1015625 17.799479166666668  C 4.353298611111112 17.89496527777778  4.663628472222222 17.975260416666668  5.032552083333334 18.040364583333332  C 5.4014756944444455 18.10546875  5.848524305555557 18.14887152777778  6.373697916666666 18.170572916666668  C 6.898871527777778 18.192274305555557  7.317708333333334 18.20529513888889  7.630208333333334 18.209635416666668  C 7.942708333333334 18.213975694444443  8.40060763888889 18.213975694444443  9.00390625 18.209635416666668  C 9.60720486111111 18.20529513888889  9.93923611111111 18.203125  10 18.203125  C 10.060763888888891 18.203125  10.392795138888891 18.20529513888889  10.99609375 18.209635416666668  C 11.59939236111111 18.213975694444443  12.057291666666668 18.213975694444443  12.369791666666668 18.209635416666668  C 12.682291666666668 18.20529513888889  13.101128472222223 18.192274305555557  13.626302083333332 18.170572916666668  C 14.151475694444446 18.14887152777778  14.598524305555555 18.10546875  14.967447916666668 18.040364583333332  C 15.336371527777779 17.975260416666668  15.646701388888891 17.89496527777778  15.8984375 17.799479166666668  C 16.33246527777778 17.625868055555557  16.71440972222222 17.374131944444443  17.044270833333332 17.044270833333332  C 17.374131944444446 16.71440972222222  17.625868055555557 16.33246527777778  17.799479166666668 15.8984375  C 17.89496527777778 15.646701388888886  17.975260416666668 15.336371527777777  18.040364583333332 14.967447916666664  C 18.10546875 14.598524305555554  18.14887152777778 14.151475694444443  18.170572916666668 13.626302083333336  C 18.192274305555557 13.101128472222218  18.20529513888889 12.682291666666664  18.209635416666668 12.369791666666664  C 18.213975694444446 12.057291666666664  18.213975694444446 11.59939236111111  18.209635416666668 10.99609375  C 18.20529513888889 10.39279513888889  18.203125 10.06076388888889  18.203125 10  C 18.203125 9.939236111111109  18.20529513888889 9.607204861111109  18.209635416666668 9.00390625  C 18.213975694444446 8.400607638888886  18.213975694444446 7.942708333333332  18.209635416666668 7.630208333333332  C 18.20529513888889 7.317708333333332  18.192274305555557 6.898871527777777  18.170572916666668 6.373697916666668  C 18.14887152777778 5.848524305555554  18.10546875 5.401475694444445  18.040364583333332 5.032552083333332  C 17.975260416666668 4.663628472222221  17.89496527777778 4.353298611111109  17.799479166666668 4.1015625  C 17.625868055555557 3.667534722222221  17.374131944444446 3.285590277777777  17.044270833333332 2.9557291666666674  C 16.71440972222222 2.6258680555555536  16.33246527777778 2.374131944444444  15.8984375 2.2005208333333326  C 15.646701388888891 2.105034722222221  15.336371527777779 2.0247395833333326  14.967447916666668 1.9596354166666674  C 14.598524305555555 1.89453125  14.151475694444446 1.851128472222221  13.626302083333332 1.8294270833333326  C 13.101128472222223 1.8077256944444442  12.682291666666668 1.7947048611111094  12.369791666666668 1.7903645833333326  C 12.057291666666668 1.7860243055555536  11.59939236111111 1.7860243055555536  10.99609375 1.7903645833333326  Z " stroke-width="0" stroke-dasharray="0" stroke="rgba(255, 255, 255, 0)" fill="none" transform="matrix(1 0 0 1 185 5127 )" class="stroke" mask="url(#Clip2)" />
    <path d="M 19.934895833333332 5.872395833333332  C 19.97829861111111 6.636284722222221  20 8.012152777777777  20 10  C 20 11.987847222222223  19.97829861111111 13.363715277777777  19.934895833333332 14.127604166666664  C 19.84809027777778 15.933159722222223  19.309895833333332 17.330729166666668  18.3203125 18.3203125  C 17.330729166666668 19.309895833333332  15.933159722222223 19.84809027777778  14.127604166666668 19.934895833333332  C 13.363715277777779 19.97829861111111  11.987847222222223 20  10 20  C 8.012152777777779 20  6.636284722222222 19.97829861111111  5.872395833333334 19.934895833333332  C 4.066840277777779 19.84809027777778  2.669270833333334 19.309895833333332  1.6796875 18.3203125  C 0.6901041666666667 17.330729166666668  0.15190972222222224 15.933159722222223  0.06510416666666667 14.127604166666664  C 0.021701388888888885 13.363715277777777  0 11.987847222222223  0 10  C 0 8.012152777777777  0.021701388888888885 6.636284722222221  0.06510416666666667 5.872395833333332  C 0.15190972222222224 4.066840277777777  0.6901041666666667 2.6692708333333326  1.6796875 1.6796875  C 2.669270833333334 0.6901041666666674  4.066840277777779 0.151909722222221  5.872395833333334 0.0651041666666674  C 6.636284722222222 0.021701388888886175  8.012152777777779 0  10 0  C 11.987847222222223 0  13.363715277777779 0.021701388888886175  14.127604166666668 0.0651041666666674  C 15.933159722222223 0.151909722222221  17.330729166666668 0.6901041666666674  18.3203125 1.6796875  C 19.309895833333332 2.6692708333333326  19.84809027777778 4.066840277777777  19.934895833333332 5.872395833333332  Z " stroke-width="0" stroke-dasharray="0" stroke="rgba(255, 255, 255, 0)" fill="none" transform="matrix(1 0 0 1 185 5127 )" class="stroke" mask="url(#Clip2)" />
  </g>
</svg>